<?xml version="1.0" encoding="utf-8"?>
<?xml-stylesheet type="text/xsl" href="rss1.xsl"?>
<rss version="2.0" xmlns:atom="http://www.w3.org/2005/Atom" xmlns:content="http://purl.org/rss/1.0/modules/content/" xmlns:dc="http://purl.org/dc/elements/1.1/" xmlns:media="http://search.yahoo.com/mrss/">
<channel>
 <title>Getty</title>
 <link>http://www.gettyimg.com/</link>
 <atom:link href="http://www.gettyimg.com/" rel="self" type="application/rss+xml" />

 
                <item>
                <title><![CDATA[【Interviews / TV shows / Others】HDTV - 49th People's Choice Awards (+ Red Carpet) HDTV MPEG2 1080i DD5.1-ilya2129]]></title>
                <link><![CDATA[https://sharemania.us/threads/49th-peoples-choice-awards-red-carpet-hdtv-mpeg2-1080i-dd5-1-ilya2129.238050/]]></link>
                <description><![CDATA[<article>
<blockquote class="messageText SelectQuoteContainer ugc baseHtml">
<div style="text-align: center"><img src="https://i123.fastpic.org/big/2024/0219/f1/da1bb789c0c3c156fa4cde148f0021f1.png?r=1" class="bbCodeImage LbImage" alt="[​IMG]" data-url="https://i123.fastpic.org/big/2024/0219/f1/da1bb789c0c3c156fa4cde148f0021f1.png?r=1" style=""><br>
<br>
<a href="https://postimg.cc/nCV4rRL2" target="_blank" class="externalLink" rel="nofollow"><img src="https://i.postimg.cc/nCV4rRL2/vlcsnap-2024-02-19-17h58m35s060.png" class="bbCodeImage LbImage" alt="[​IMG]" data-url="https://i.postimg.cc/nCV4rRL2/vlcsnap-2024-02-19-17h58m35s060.png"></a> <a href="https://postimg.cc/tYfsb2nY" target="_blank" class="externalLink" rel="nofollow"><img src="https://i.postimg.cc/tYfsb2nY/vlcsnap-2024-02-19-17h58m38s725.png" class="bbCodeImage LbImage" alt="[​IMG]" data-url="https://i.postimg.cc/tYfsb2nY/vlcsnap-2024-02-19-17h58m38s725.png"></a> <a href="https://postimg.cc/gnw0g8td" target="_blank" class="externalLink" rel="nofollow"><img src="https://i.postimg.cc/gnw0g8td/vlcsnap-2024-02-19-17h58m43s512.png" class="bbCodeImage LbImage" alt="[​IMG]" data-url="https://i.postimg.cc/gnw0g8td/vlcsnap-2024-02-19-17h58m43s512.png"></a> <a href="https://postimg.cc/Yv5L6btJ" target="_blank" class="externalLink" rel="nofollow"><img src="https://i.postimg.cc/Yv5L6btJ/vlcsnap-2024-02-19-17h58m46s473.png" class="bbCodeImage LbImage" alt="[​IMG]" data-url="https://i.postimg.cc/Yv5L6btJ/vlcsnap-2024-02-19-17h58m46s473.png"></a> <a href="https://postimg.cc/T53KdscW" target="_blank" class="externalLink" rel="nofollow"><img src="https://i.postimg.cc/T53KdscW/vlcsnap-2024-02-19-17h58m48s550.png" class="bbCodeImage LbImage" alt="[​IMG]" data-url="https://i.postimg.cc/T53KdscW/vlcsnap-2024-02-19-17h58m48s550.png"></a> <a href="https://postimg.cc/1VXzhq9G" target="_blank" class="externalLink" rel="nofollow"><img src="https://i.postimg.cc/1VXzhq9G/vlcsnap-2024-02-19-17h58m51s983.png" class="bbCodeImage LbImage" alt="[​IMG]" data-url="https://i.postimg.cc/1VXzhq9G/vlcsnap-2024-02-19-17h58m51s983.png"></a><br>
<br>
<a href="https://postimg.cc/zygVGKTp" target="_blank" class="externalLink" rel="nofollow"><img src="https://i.postimg.cc/zygVGKTp/vlcsnap-2024-02-19-17h58m59s343.png" class="bbCodeImage LbImage" alt="[​IMG]" data-url="https://i.postimg.cc/zygVGKTp/vlcsnap-2024-02-19-17h58m59s343.png"></a> <a href="https://postimg.cc/KkJYHNyc" target="_blank" class="externalLink" rel="nofollow"><img src="https://i.postimg.cc/KkJYHNyc/vlcsnap-2024-02-19-17h59m02s483.png" class="bbCodeImage LbImage" alt="[​IMG]" data-url="https://i.postimg.cc/KkJYHNyc/vlcsnap-2024-02-19-17h59m02s483.png"></a> <a href="https://postimg.cc/Z9z0Bncm" target="_blank" class="externalLink" rel="nofollow"><img src="https://i.postimg.cc/Z9z0Bncm/vlcsnap-2024-02-19-17h59m07s404.png" class="bbCodeImage LbImage" alt="[​IMG]" data-url="https://i.postimg.cc/Z9z0Bncm/vlcsnap-2024-02-19-17h59m07s404.png"></a> <a href="https://postimg.cc/QVCNMc35" target="_blank" class="externalLink" rel="nofollow"><img src="https://i.postimg.cc/QVCNMc35/vlcsnap-2024-02-19-17h59m11s212.png" class="bbCodeImage LbImage" alt="[​IMG]" data-url="https://i.postimg.cc/QVCNMc35/vlcsnap-2024-02-19-17h59m11s212.png"></a> <a href="https://postimg.cc/753wRV3v" target="_blank" class="externalLink" rel="nofollow"><img src="https://i.postimg.cc/753wRV3v/vlcsnap-2024-02-19-17h59m17s929.png" class="bbCodeImage LbImage" alt="[​IMG]" data-url="https://i.postimg.cc/753wRV3v/vlcsnap-2024-02-19-17h59m17s929.png"></a> <a href="https://postimg.cc/5YN4LCQh" target="_blank" class="externalLink" rel="nofollow"><img src="https://i.postimg.cc/5YN4LCQh/vlcsnap-2024-02-19-17h59m22s233.png" class="bbCodeImage LbImage" alt="[​IMG]" data-url="https://i.postimg.cc/5YN4LCQh/vlcsnap-2024-02-19-17h59m22s233.png"></a> <br>
<br>
​</div><br>
<div class="bbCodeBlock bbCodeCode">
<div class="type">Code:</div>
<pre>General
ID                                       : 1 (0x1)
Complete name                            : D:\49th People's Choice Awards\49th People's Choice Awards HDTV MPEG2 1080i DD5.1-ilya2129.ts
Format                                   : MPEG-TS
File size                                : 8.33 GiB
Duration                                 : 1 h 25 min
Overall bit rate mode                    : Variable
Overall bit rate                         : 13.9 Mb/s
Frame rate                               : 29.970 FPS
Law rating                               : TV-14 (L)

Video
ID                                       : 101 (0x65)
Menu ID                                  : 1 (0x1)
Format                                   : MPEG Video
Format version                           : Version 2
Format profile                           : Main@High
Format settings                          : BVOP
Format settings, BVOP                    : Yes
Format settings, Matrix                  : Default
Format settings, GOP                     : Variable
Format settings, picture structure       : Frame
Codec ID                                 : 2
Duration                                 : 1 h 25 min
Bit rate mode                            : Variable
Bit rate                                 : 12.6 Mb/s
Maximum bit rate                         : 64.0 Mb/s
Width                                    : 1 920 pixels
Height                                   : 1 080 pixels
Display aspect ratio                     : 16:9
Active Format Description                : Full frame 16:9 image
Frame rate                               : 29.970 (30000/1001) FPS
Color space                              : YUV
Chroma subsampling                       : 4:2:0
Bit depth                                : 8 bits
Scan type                                : Interlaced
Scan order                               : Top Field First
Compression mode                         : Lossy
Bits/(Pixel*Frame)                       : 0.203
Time code of first frame                 : 00:04:18;05
Time code source                         : Group of pictures header
Stream size                              : 7.57 GiB (91%)

Audio #1
ID                                       : 102 (0x66)
Menu ID                                  : 1 (0x1)
Format                                   : AC-3
Format/Info                              : Audio Coding 3
Commercial name                          : Dolby Digital
Codec ID                                 : 129
Duration                                 : 1 h 25 min
Bit rate mode                            : Constant
Bit rate                                 : 384 kb/s
Channel(s)                               : 6 channels
Channel layout                           : L R C LFE Ls Rs
Sampling rate                            : 48.0 kHz
Frame rate                               : 31.250 FPS (1536 SPF)
Compression mode                         : Lossy
Delay relative to video                  : 2 ms
Stream size                              : 236 MiB (3%)
Language                                 : English
Service kind                             : Complete Main

Audio #2
ID                                       : 7553 (0x1D81)
Menu ID                                  : 1 (0x1)
Format                                   : AC-3
Format/Info                              : Audio Coding 3
Commercial name                          : Dolby Digital
Codec ID                                 : 129
Duration                                 : 1 h 25 min
Bit rate mode                            : Constant
Bit rate                                 : 192 kb/s
Channel(s)                               : 2 channels
Channel layout                           : M M
Sampling rate                            : 48.0 kHz
Frame rate                               : 31.250 FPS (1536 SPF)
Compression mode                         : Lossy
Delay relative to video                  : 2 ms
Stream size                              : 118 MiB (1%)
Language                                 : Spanish
Service kind                             : Complete Main

Text #1
ID                                       : 101 (0x65)-CC1
Menu ID                                  : 1 (0x1)
Format                                   : EIA-608
Muxing mode                              : A/53 / DTVCC Transport
Muxing mode, more info                   : Muxed in Video #1
Duration                                 : 1 h 25 min
Start time (commands)                    : 1 s 450 ms
Start time                               : 1 s 517 ms
Bit rate mode                            : Constant
Stream size                              : 0.00 Byte (0%)
Type of the first event                  : RollUp

Text #2
ID                                       : 101 (0x65)-1
Menu ID                                  : 1 (0x1)
Format                                   : EIA-708
Muxing mode                              : A/53 / DTVCC Transport
Muxing mode, more info                   : Muxed in Video #1
Duration                                 : 1 h 25 min
Bit rate mode                            : Constant
Stream size                              : 0.00 Byte (0%)

</pre>
</div><div style="text-align: center">
<div class="bbCodeBlock bbCodeVfcHH HiddenContent">
<div class="attribution type">Hidden Content:</div>
<blockquote>You must reply before you can see the hidden data contained here.</blockquote>
</div></div>
<div class="messageTextEndMarker">&nbsp;</div>
</blockquote>
</article>]]></description>
                <author><![CDATA[ilya2129]]></author>
                </item>

                
                <item>
                <title><![CDATA[【Interviews / TV shows / Others】HDTV - 77th British Academy Film Awards (BAFTA) HDTV H264 1080i DD2.0-ilya2129]]></title>
                <link><![CDATA[https://sharemania.us/threads/77th-british-academy-film-awards-bafta-hdtv-h264-1080i-dd2-0-ilya2129.238049/]]></link>
                <description><![CDATA[<article>
<blockquote class="messageText SelectQuoteContainer ugc baseHtml">
<div style="text-align: center"><img src="https://i116.fastpic.org/big/2022/0314/44/453d866de986ecd3c468fdb027af5a44.png?r=1" class="bbCodeImage LbImage" alt="[​IMG]" data-url="https://i116.fastpic.org/big/2022/0314/44/453d866de986ecd3c468fdb027af5a44.png?r=1" style=""><br>
<br>
<a href="https://postimg.cc/Z0Vpy82L" target="_blank" class="externalLink" rel="nofollow"><img src="https://i.postimg.cc/Z0Vpy82L/vlcsnap-2024-02-19-17h44m00s797.png" class="bbCodeImage LbImage" alt="[​IMG]" data-url="https://i.postimg.cc/Z0Vpy82L/vlcsnap-2024-02-19-17h44m00s797.png"></a> <a href="https://postimg.cc/wt8md0R9" target="_blank" class="externalLink" rel="nofollow"><img src="https://i.postimg.cc/wt8md0R9/vlcsnap-2024-02-19-17h44m04s337.png" class="bbCodeImage LbImage" alt="[​IMG]" data-url="https://i.postimg.cc/wt8md0R9/vlcsnap-2024-02-19-17h44m04s337.png"></a> <a href="https://postimg.cc/PLW8fY1Y" target="_blank" class="externalLink" rel="nofollow"><img src="https://i.postimg.cc/PLW8fY1Y/vlcsnap-2024-02-19-17h44m08s261.png" class="bbCodeImage LbImage" alt="[​IMG]" data-url="https://i.postimg.cc/PLW8fY1Y/vlcsnap-2024-02-19-17h44m08s261.png"></a> <a href="https://postimg.cc/PC8wcBx6" target="_blank" class="externalLink" rel="nofollow"><img src="https://i.postimg.cc/PC8wcBx6/vlcsnap-2024-02-19-17h44m12s588.png" class="bbCodeImage LbImage" alt="[​IMG]" data-url="https://i.postimg.cc/PC8wcBx6/vlcsnap-2024-02-19-17h44m12s588.png"></a> <a href="https://postimg.cc/tZ9nsJzf" target="_blank" class="externalLink" rel="nofollow"><img src="https://i.postimg.cc/tZ9nsJzf/vlcsnap-2024-02-19-17h44m17s576.png" class="bbCodeImage LbImage" alt="[​IMG]" data-url="https://i.postimg.cc/tZ9nsJzf/vlcsnap-2024-02-19-17h44m17s576.png"></a> <a href="https://postimg.cc/PpKpYH3q" target="_blank" class="externalLink" rel="nofollow"><img src="https://i.postimg.cc/PpKpYH3q/vlcsnap-2024-02-19-17h44m23s241.png" class="bbCodeImage LbImage" alt="[​IMG]" data-url="https://i.postimg.cc/PpKpYH3q/vlcsnap-2024-02-19-17h44m23s241.png"></a> <br>
<br>
​</div><br>
<div class="bbCodeBlock bbCodeCode">
<div class="type">Code:</div>
<pre>General
ID                                       : 1 (0x1)
Complete name                            : D:\77th British Academy Film Awards (BAFTA) HDTV H264 1080i DD2.0-ilya2129.ts
Format                                   : MPEG-TS
File size                                : 5.82 GiB
Duration                                 : 1 h 57 min
Overall bit rate mode                    : Variable
Overall bit rate                         : 7 098 kb/s
Frame rate                               : 25.000 FPS

Video
ID                                       : 302 (0x12E)
Menu ID                                  : 1 (0x1)
Format                                   : AVC
Format/Info                              : Advanced Video Codec
Format profile                           : High@L4
Format settings                          : CABAC / 4 Ref Frames
Format settings, CABAC                   : Yes
Format settings, Reference frames        : 4 frames
Codec ID                                 : 27
Duration                                 : 1 h 57 min
Bit rate                                 : 6 553 kb/s
Width                                    : 1 920 pixels
Height                                   : 1 080 pixels
Display aspect ratio                     : 16:9
Active Format Description                : Letterbox 16:9 image, with alternative 14:9 center
Frame rate                               : 25.000 FPS
Standard                                 : Component
Color space                              : YUV
Chroma subsampling                       : 4:2:0
Bit depth                                : 8 bits
Scan type                                : MBAFF
Scan type, store method                  : Interleaved fields
Scan order                               : Top Field First
Bits/(Pixel*Frame)                       : 0.126
Stream size                              : 5.38 GiB (92%)
Color range                              : Limited
Color primaries                          : BT.709
Transfer characteristics                 : BT.709
Matrix coefficients                      : BT.709

Audio
ID                                       : 303 (0x12F)
Menu ID                                  : 1 (0x1)
Format                                   : AC-3
Format/Info                              : Audio Coding 3
Commercial name                          : Dolby Digital
Codec ID                                 : 6
Duration                                 : 1 h 57 min
Bit rate mode                            : Constant
Bit rate                                 : 192 kb/s
Channel(s)                               : 2 channels
Channel layout                           : L R
Sampling rate                            : 48.0 kHz
Frame rate                               : 31.250 FPS (1536 SPF)
Compression mode                         : Lossy
Stream size                              : 161 MiB (3%)
Language                                 : English
Service kind                             : Complete Main

Text
ID                                       : 2403 (0x963)
Menu ID                                  : 1 (0x1)
Format                                   : DVB Subtitle
Codec ID                                 : 6
Duration                                 : 1 h 57 min
Delay relative to video                  : 2 s 993 ms
Language                                 : 888 / English

Other
ID                                       : 310 (0x136)-888
Menu ID                                  : 1 (0x1)
Format                                   : Teletext
Language                                 : English
</pre>
</div><div style="text-align: center">
<div class="bbCodeBlock bbCodeVfcHH HiddenContent">
<div class="attribution type">Hidden Content:</div>
<blockquote>You must reply before you can see the hidden data contained here.</blockquote>
</div></div>
<div class="messageTextEndMarker">&nbsp;</div>
</blockquote>
</article>]]></description>
                <author><![CDATA[ilya2129]]></author>
                </item>

                
                <item>
                <title><![CDATA[【HD Live Performances】HDTV - Jennifer Lopez - This Is Me… Now &amp; Can't Get Enough ft. Latto and REDMAN ( Live @ Saturday Night Live )]]></title>
                <link><![CDATA[https://sharemania.us/threads/jennifer-lopez-this-is-me%E2%80%A6-now-cant-get-enough-ft-latto-and-redman-live-saturday-night-live.238051/]]></link>
                <description><![CDATA[<article>
<blockquote class="messageText SelectQuoteContainer ugc baseHtml">
<div style="text-align: center"><img src="https://i120.fastpic.org/big/2022/1002/bd/d45b76551a682bff93a631261c4d52bd.png" class="bbCodeImage LbImage" alt="[​IMG]" data-url="https://i120.fastpic.org/big/2022/1002/bd/d45b76551a682bff93a631261c4d52bd.png" style=""><br>
<br>
<a href="https://postimg.cc/mt4dwyg1" target="_blank" class="externalLink" rel="nofollow"><img src="https://i.postimg.cc/mt4dwyg1/vlcsnap-2024-02-19-18h06m46s902.png" class="bbCodeImage LbImage" alt="[​IMG]" data-url="https://i.postimg.cc/mt4dwyg1/vlcsnap-2024-02-19-18h06m46s902.png"></a> <a href="https://postimg.cc/5HDgFwr0" target="_blank" class="externalLink" rel="nofollow"><img src="https://i.postimg.cc/5HDgFwr0/vlcsnap-2024-02-19-18h06m49s769.png" class="bbCodeImage LbImage" alt="[​IMG]" data-url="https://i.postimg.cc/5HDgFwr0/vlcsnap-2024-02-19-18h06m49s769.png"></a> <a href="https://postimg.cc/mPX8TxN7" target="_blank" class="externalLink" rel="nofollow"><img src="https://i.postimg.cc/mPX8TxN7/vlcsnap-2024-02-19-18h06m53s282.png" class="bbCodeImage LbImage" alt="[​IMG]" data-url="https://i.postimg.cc/mPX8TxN7/vlcsnap-2024-02-19-18h06m53s282.png"></a> <a href="https://postimg.cc/rdDgmhQ3" target="_blank" class="externalLink" rel="nofollow"><img src="https://i.postimg.cc/rdDgmhQ3/vlcsnap-2024-02-19-18h06m56s401.png" class="bbCodeImage LbImage" alt="[​IMG]" data-url="https://i.postimg.cc/rdDgmhQ3/vlcsnap-2024-02-19-18h06m56s401.png"></a> <a href="https://postimg.cc/wRpkw9gY" target="_blank" class="externalLink" rel="nofollow"><img src="https://i.postimg.cc/wRpkw9gY/vlcsnap-2024-02-19-18h06m58s759.png" class="bbCodeImage LbImage" alt="[​IMG]" data-url="https://i.postimg.cc/wRpkw9gY/vlcsnap-2024-02-19-18h06m58s759.png"></a> <a href="https://postimg.cc/DJsgQSVc" target="_blank" class="externalLink" rel="nofollow"><img src="https://i.postimg.cc/DJsgQSVc/vlcsnap-2024-02-19-18h07m00s827.png" class="bbCodeImage LbImage" alt="[​IMG]" data-url="https://i.postimg.cc/DJsgQSVc/vlcsnap-2024-02-19-18h07m00s827.png"></a> <br>
<br>
<div class="bbCodeBlock bbCodeCode">
<div class="type">Code:</div>
<pre>General
ID                                       : 1 (0x1)
Complete name                            : D:\Jennifer Lopez - This Is Me… Now &amp; Can't Get Enough ft. Latto and REDMAN ( Live @ Saturday Night Live ) HDTV MPEG2 1080i DD5.1-ilya2129.ts
Format                                   : MPEG-TS
File size                                : 999 MiB
Duration                                 : 8 min 17 s
Overall bit rate mode                    : Variable
Overall bit rate                         : 16.8 Mb/s
Frame rate                               : 29.970 FPS

Video
ID                                       : 301 (0x12D)
Menu ID                                  : 1 (0x1)
Format                                   : MPEG Video
Format version                           : Version 2
Format profile                           : Main@High
Format settings                          : CustomMatrix / BVOP
Format settings, BVOP                    : Yes
Format settings, Matrix                  : Custom
Format settings, GOP                     : Variable
Format settings, picture structure       : Frame
Codec ID                                 : 2
Duration                                 : 8 min 17 s
Bit rate mode                            : Variable
Bit rate                                 : 15.5 Mb/s
Maximum bit rate                         : 17.5 Mb/s
Width                                    : 1 920 pixels
Height                                   : 1 080 pixels
Display aspect ratio                     : 16:9
Active Format Description                : Full frame 16:9 image
Frame rate                               : 29.970 (30000/1001) FPS
Color space                              : YUV
Chroma subsampling                       : 4:2:0
Bit depth                                : 8 bits
Scan type                                : Interlaced
Scan order                               : Top Field First
Compression mode                         : Lossy
Bits/(Pixel*Frame)                       : 0.249
Time code of first frame                 : 10:05:36;27
Time code source                         : Group of pictures header
GOP, Open/Closed                         : Open
GOP, Open/Closed of first frame          : Closed
Stream size                              : 919 MiB (92%)

Audio #1
ID                                       : 302 (0x12E)
Menu ID                                  : 1 (0x1)
Format                                   : AC-3
Format/Info                              : Audio Coding 3
Commercial name                          : Dolby Digital
Codec ID                                 : 129
Duration                                 : 8 min 17 s
Bit rate mode                            : Constant
Bit rate                                 : 384 kb/s
Channel(s)                               : 6 channels
Channel layout                           : L R C LFE Ls Rs
Sampling rate                            : 48.0 kHz
Frame rate                               : 31.250 FPS (1536 SPF)
Compression mode                         : Lossy
Delay relative to video                  : 8 ms
Stream size                              : 22.8 MiB (2%)
Language                                 : English
Service kind                             : Complete Main

Audio #2
ID                                       : 303 (0x12F)
Menu ID                                  : 1 (0x1)
Format                                   : AC-3
Format/Info                              : Audio Coding 3
Commercial name                          : Dolby Digital
Codec ID                                 : 129
Duration                                 : 8 min 17 s
Bit rate mode                            : Constant
Bit rate                                 : 128 kb/s
Channel(s)                               : 2 channels
Channel layout                           : L R
Sampling rate                            : 48.0 kHz
Frame rate                               : 31.250 FPS (1536 SPF)
Compression mode                         : Lossy
Delay relative to video                  : 8 ms
Stream size                              : 7.60 MiB (1%)
Language                                 : Spanish
Service kind                             : Complete Main

Text #1
ID                                       : 301 (0x12D)-CC1
Menu ID                                  : 1 (0x1)
Format                                   : EIA-608
Muxing mode                              : A/53 / DTVCC Transport
Muxing mode, more info                   : Muxed in Video #1
Duration                                 : 8 min 17 s
Duration of the visible content          : 7 min 59 s
Start time (commands)                    : 11 s 590 ms
Start time                               : 11 s 657 ms
End time                                 : 8 min 11 s
Bit rate mode                            : Constant
Stream size                              : 0.00 Byte (0%)
Type of the first event                  : RollUp

Text #2
ID                                       : 301 (0x12D)-CC3
Menu ID                                  : 1 (0x1)
Format                                   : EIA-608
Muxing mode                              : A/53 / DTVCC Transport
Muxing mode, more info                   : Muxed in Video #1
Duration                                 : 8 min 17 s
Start time (commands)                    : 10 s 689 ms
Bit rate mode                            : Constant
Stream size                              : 0.00 Byte (0%)
Type of the first event                  : PaintOn

Text #3
ID                                       : 301 (0x12D)-1
Menu ID                                  : 1 (0x1)
Format                                   : EIA-708
Muxing mode                              : A/53 / DTVCC Transport
Muxing mode, more info                   : Muxed in Video #1
Duration                                 : 8 min 17 s
Bit rate mode                            : Constant
Stream size                              : 0.00 Byte (0%)

Text #4
ID                                       : 301 (0x12D)-2
Menu ID                                  : 1 (0x1)
Format                                   : EIA-708
Muxing mode                              : A/53 / DTVCC Transport
Muxing mode, more info                   : Muxed in Video #1
Duration                                 : 8 min 17 s
Bit rate mode                            : Constant
Stream size                              : 0.00 Byte (0%)

Text #5
ID                                       : 301 (0x12D)-3
Menu ID                                  : 1 (0x1)
Format                                   : EIA-708
Muxing mode                              : A/53 / DTVCC Transport
Muxing mode, more info                   : Muxed in Video #1
Duration                                 : 8 min 17 s
Bit rate mode                            : Constant
Stream size                              : 0.00 Byte (0%)

Text #6
ID                                       : 301 (0x12D)-4
Menu ID                                  : 1 (0x1)
Format                                   : EIA-708
Muxing mode                              : A/53 / DTVCC Transport
Muxing mode, more info                   : Muxed in Video #1
Duration                                 : 8 min 17 s
Bit rate mode                            : Constant
Stream size                              : 0.00 Byte (0%)

Text #7
ID                                       : 301 (0x12D)-5
Menu ID                                  : 1 (0x1)
Format                                   : EIA-708
Muxing mode                              : A/53 / DTVCC Transport
Muxing mode, more info                   : Muxed in Video #1
Duration                                 : 8 min 17 s
Bit rate mode                            : Constant
Stream size                              : 0.00 Byte (0%)

Text #8
ID                                       : 301 (0x12D)-6
Menu ID                                  : 1 (0x1)
Format                                   : EIA-708
Muxing mode                              : A/53 / DTVCC Transport
Muxing mode, more info                   : Muxed in Video #1
Duration                                 : 8 min 17 s
Bit rate mode                            : Constant
Stream size                              : 0.00 Byte (0%)


</pre>
</div><div style="text-align: center">
<div class="bbCodeBlock bbCodeVfcHH HiddenContent">
<div class="attribution type">Hidden Content:</div>
<blockquote>You must reply before you can see the hidden data contained here.</blockquote>
</div></div></div>
<div class="messageTextEndMarker">&nbsp;</div>
</blockquote>
</article>]]></description>
                <author><![CDATA[ilya2129]]></author>
                </item>

                </channel></rss>